<?xml version="1.0" encoding="UTF-8" standalone="no"?>
<svg xmlns:xlink="http://www.w3.org/1999/xlink" height="135.15px" width="100.55px" xmlns="http://www.w3.org/2000/svg">
  <g transform="matrix(1.0, 0.0, 0.0, 1.0, 0.0, 0.0)">
    <path d="M74.1 97.1 L74.0 97.25 80.65 128.7 97.15 82.2 81.9 78.7 74.1 97.1 M69.0 39.35 L82.15 75.7 96.45 79.0 75.7 28.35 69.0 39.35 M0.25 54.2 L0.0 53.45 0.2 52.65 28.1 0.8 Q28.35 0.3 28.9 0.1 L30.0 0.15 30.7 0.5 31.0 0.65 76.75 23.85 Q77.25 24.05 77.45 24.6 L100.45 80.75 Q100.65 81.25 100.5 81.8 L81.9 134.15 81.4 134.85 80.6 135.15 79.8 135.0 28.8 112.2 28.3 111.8 27.7 111.15 0.3 54.25 0.25 54.2 M48.15 27.4 L66.8 37.2 73.85 25.75 70.05 23.8 34.15 5.6 47.15 26.85 48.15 27.4 M38.0 48.95 L48.7 73.95 52.65 83.15 72.0 94.35 79.4 76.95 79.4 76.9 71.65 55.4 66.15 40.25 47.05 30.2 38.35 46.45 38.3 46.5 37.55 47.9 38.0 48.95 M29.7 4.1 L4.1 51.7 34.6 46.55 35.1 46.15 44.6 28.4 29.7 4.1 M49.55 83.55 L35.0 49.55 3.9 54.75 29.75 108.5 49.55 83.55 M70.9 97.2 L51.45 85.9 32.1 110.35 78.05 130.95 70.9 97.2" fill="#45070e" fill-rule="evenodd" stroke="none"/>
    <path d="M69.0 39.35 L75.7 28.35 96.45 79.0 82.15 75.7 69.0 39.35" fill="#f83f56" fill-rule="evenodd" stroke="none"/>
    <path d="M74.1 97.1 L81.9 78.7 97.15 82.2 80.65 128.7 74.0 97.25 74.1 97.1 M48.15 27.4 L47.5 25.8 46.25 23.9 46.2 23.5 45.95 22.9 45.65 22.25 45.0 20.25 43.6 16.4 Q42.8 14.3 42.35 12.15 43.1 12.4 43.65 13.0 44.65 14.05 46.05 14.45 L50.05 16.25 Q55.5 18.35 60.9 20.75 L61.35 21.0 63.65 21.55 Q63.9 21.8 64.25 21.9 L68.2 23.1 69.3 23.6 70.05 23.8 73.85 25.75 66.8 37.2 48.15 27.4 M38.0 48.95 L39.45 47.95 42.45 45.05 42.75 44.55 44.75 41.85 Q45.5 40.55 46.65 39.55 L46.95 39.4 47.1 39.3 47.6 38.85 48.7 37.7 49.35 36.7 49.75 36.45 50.1 36.05 50.4 35.7 50.85 35.85 52.85 36.8 Q56.55 38.7 60.35 40.3 L60.65 40.5 61.4 40.75 62.05 41.2 Q62.6 41.55 63.2 41.75 63.9 42.05 64.4 42.6 65.45 43.8 66.05 45.35 66.7 47.1 67.85 48.5 L68.2 49.15 69.35 51.3 70.35 52.75 Q70.4 53.45 70.8 54.05 L71.65 55.4 79.4 76.9 79.4 76.95 79.15 77.05 78.6 77.7 77.25 79.05 76.5 80.55 75.1 83.05 74.95 83.15 74.8 83.3 74.65 83.45 74.2 84.2 73.45 85.3 73.3 85.45 73.15 85.55 73.1 85.7 73.05 85.8 73.05 85.95 73.0 86.05 72.9 86.2 72.65 86.55 72.6 86.8 72.2 87.3 72.05 87.7 Q71.7 87.95 71.5 88.3 L71.3 88.8 71.15 88.95 71.0 89.05 70.9 89.2 70.85 89.3 70.85 89.45 70.65 89.55 70.55 89.7 70.45 89.8 70.2 89.85 70.15 89.8 54.05 81.7 52.2 79.05 48.7 73.95 38.0 48.95 M29.7 4.1 L44.6 28.4 35.1 46.15 34.6 46.55 4.1 51.7 29.7 4.1" fill="#e61730" fill-rule="evenodd" stroke="none"/>
    <path d="M70.05 23.8 L69.3 23.6 68.2 23.1 64.25 21.9 Q63.9 21.8 63.65 21.55 L61.35 21.0 60.9 20.75 Q55.5 18.35 50.05 16.25 L46.05 14.45 Q44.65 14.05 43.65 13.0 43.1 12.4 42.35 12.15 42.8 14.3 43.6 16.4 L45.0 20.25 45.65 22.25 45.95 22.9 46.2 23.5 46.25 23.9 47.5 25.8 48.15 27.4 47.15 26.85 34.15 5.6 70.05 23.8 M71.65 55.4 L70.8 54.05 Q70.4 53.45 70.35 52.75 L69.35 51.3 68.2 49.15 67.85 48.5 Q66.7 47.1 66.05 45.35 65.45 43.8 64.4 42.6 63.9 42.05 63.2 41.75 62.6 41.55 62.05 41.2 L61.4 40.75 60.65 40.5 60.35 40.3 Q56.55 38.7 52.85 36.8 L50.85 35.85 50.4 35.7 50.1 36.05 49.75 36.45 49.35 36.7 48.7 37.7 47.6 38.85 47.1 39.3 46.95 39.4 46.65 39.55 Q45.5 40.55 44.75 41.85 L42.75 44.55 42.45 45.05 39.45 47.95 38.0 48.95 37.55 47.9 38.3 46.5 38.35 46.45 47.05 30.2 66.15 40.25 71.65 55.4 M48.7 73.95 L52.2 79.05 54.05 81.7 70.15 89.8 70.2 89.85 70.45 89.8 70.55 89.7 70.65 89.55 70.85 89.45 70.85 89.3 70.9 89.2 71.0 89.05 71.15 88.95 71.3 88.8 71.5 88.3 Q71.7 87.95 72.05 87.7 L72.2 87.3 72.6 86.8 72.65 86.55 72.9 86.2 73.0 86.05 73.05 85.95 73.05 85.8 73.1 85.7 73.15 85.55 73.3 85.45 73.45 85.3 74.2 84.2 74.65 83.45 74.8 83.3 74.95 83.15 75.1 83.05 76.5 80.55 77.25 79.05 78.6 77.7 79.15 77.05 79.4 76.95 72.0 94.35 52.65 83.15 48.7 73.95" fill="#f7c1c7" fill-rule="evenodd" stroke="none"/>
    <path d="M49.55 83.55 L29.75 108.5 3.9 54.75 35.0 49.55 49.55 83.55 M70.9 97.2 L78.05 130.95 32.1 110.35 51.45 85.9 70.9 97.2" fill="#d1154e" fill-rule="evenodd" stroke="none"/>
  </g>
</svg>
